<svg width="80" height="80" viewBox="0 0 80 80" fill="none" xmlns="http://www.w3.org/2000/svg">
<circle cx="40" cy="40" r="40" fill="white"/>
<g clip-path="url(#clip0_84_47)">
<path d="M44.3945 40C44.3945 42.427 42.427 44.3945 40 44.3945C37.573 44.3945 35.6055 42.427 35.6055 40C35.6055 37.573 37.573 35.6055 40 35.6055C42.427 35.6055 44.3945 37.573 44.3945 40Z" fill="#124DB7"/>
<path d="M47.4219 26.7188H32.5781C29.3471 26.7188 26.7188 29.3471 26.7188 32.5781V47.4219C26.7188 50.6529 29.3471 53.2812 32.5781 53.2812H47.4219C50.6529 53.2812 53.2812 50.6529 53.2812 47.4219V32.5781C53.2812 29.3471 50.6529 26.7188 47.4219 26.7188ZM40 47.3242C35.9614 47.3242 32.6758 44.0386 32.6758 40C32.6758 35.9614 35.9614 32.6758 40 32.6758C44.0386 32.6758 47.3242 35.9614 47.3242 40C47.3242 44.0386 44.0386 47.3242 40 47.3242ZM48.3984 33.0664C47.5894 33.0664 46.9336 32.4106 46.9336 31.6016C46.9336 30.7925 47.5894 30.1367 48.3984 30.1367C49.2075 30.1367 49.8633 30.7925 49.8633 31.6016C49.8633 32.4106 49.2075 33.0664 48.3984 33.0664Z" fill="#124DB7"/>
<path d="M51.8164 15H28.1836C20.9143 15 15 20.9144 15 28.1836V51.8164C15 59.0857 20.9144 65 28.1836 65H51.8164C59.0857 65 65 59.0856 65 51.8164V28.1836C65 20.9143 59.0856 15 51.8164 15ZM56.2109 47.4219C56.2109 52.2681 52.2681 56.2109 47.4219 56.2109H32.5781C27.7319 56.2109 23.7891 52.2681 23.7891 47.4219V32.5781C23.7891 27.7319 27.7319 23.7891 32.5781 23.7891H47.4219C52.2681 23.7891 56.2109 27.7319 56.2109 32.5781V47.4219Z" fill="#124DB7"/>
</g>
<defs>
<clipPath id="clip0_84_47">
<rect width="50" height="50" fill="white" transform="translate(15 15)"/>
</clipPath>
</defs>
</svg>
