<svg width="80" height="80" viewBox="0 0 80 80" fill="none" xmlns="http://www.w3.org/2000/svg">
<circle cx="40" cy="40" r="40" fill="white"/>
<g clip-path="url(#clip0_65_24)">
<path d="M65 24.4969C63.1406 25.3125 61.1594 25.8531 59.0938 26.1156C61.2188 24.8469 62.8406 22.8531 63.6031 20.45C61.6219 21.6312 59.4344 22.4656 57.1031 22.9313C55.2219 20.9281 52.5406 19.6875 49.6156 19.6875C43.9406 19.6875 39.3719 24.2938 39.3719 29.9406C39.3719 30.7531 39.4406 31.5344 39.6094 32.2781C31.0875 31.8625 23.5469 27.7781 18.4812 21.5563C17.5969 23.0906 17.0781 24.8469 17.0781 26.7375C17.0781 30.2875 18.9062 33.4344 21.6312 35.2562C19.9844 35.225 18.3687 34.7469 17 33.9938V34.1062C17 39.0875 20.5531 43.225 25.2125 44.1781C24.3781 44.4062 23.4688 44.5156 22.525 44.5156C21.8688 44.5156 21.2062 44.4781 20.5844 44.3406C21.9125 48.4 25.6813 51.3844 30.1625 51.4812C26.675 54.2094 22.2469 55.8531 17.4531 55.8531C16.6125 55.8531 15.8062 55.8156 15 55.7125C19.5406 58.6406 24.9219 60.3125 30.725 60.3125C49.5875 60.3125 59.9 44.6875 59.9 31.1437C59.9 30.6906 59.8844 30.2531 59.8625 29.8188C61.8969 28.375 63.6063 26.5719 65 24.4969Z" fill="#124DB7"/>
</g>
<defs>
<clipPath id="clip0_65_24">
<rect width="50" height="50" fill="white" transform="translate(15 15)"/>
</clipPath>
</defs>
</svg>
