<svg width="80" height="80" viewBox="0 0 80 80" fill="none" xmlns="http://www.w3.org/2000/svg">
<circle cx="40" cy="40" r="40" fill="white"/>
<g clip-path="url(#clip0_84_61)">
<path d="M40.0063 15H39.9937C26.2094 15 15 26.2125 15 40C15 45.4688 16.7625 50.5375 19.7594 54.6531L16.6438 63.9406L26.2531 60.8688C30.2063 63.4875 34.9219 65 40.0063 65C53.7906 65 65 53.7844 65 40C65 26.2156 53.7906 15 40.0063 15ZM54.5531 50.3031C53.95 52.0062 51.5563 53.4188 49.6469 53.8312C48.3406 54.1094 46.6344 54.3313 40.8906 51.95C33.5437 48.9062 28.8125 41.4406 28.4438 40.9562C28.0906 40.4719 25.475 37.0031 25.475 33.4156C25.475 29.8281 27.2969 28.0813 28.0312 27.3313C28.6344 26.7156 29.6312 26.4344 30.5875 26.4344C30.8969 26.4344 31.175 26.45 31.425 26.4625C32.1594 26.4937 32.5281 26.5375 33.0125 27.6969C33.6156 29.15 35.0844 32.7375 35.2594 33.1063C35.4375 33.475 35.6156 33.975 35.3656 34.4594C35.1313 34.9594 34.925 35.1812 34.5562 35.6062C34.1875 36.0312 33.8375 36.3563 33.4688 36.8125C33.1313 37.2094 32.75 37.6344 33.175 38.3687C33.6 39.0875 35.0688 41.4844 37.2312 43.4094C40.0219 45.8937 42.2844 46.6875 43.0938 47.025C43.6969 47.275 44.4156 47.2156 44.8562 46.7469C45.4156 46.1438 46.1062 45.1438 46.8094 44.1594C47.3094 43.4531 47.9406 43.3656 48.6031 43.6156C49.2781 43.85 52.85 45.6156 53.5844 45.9812C54.3187 46.35 54.8031 46.525 54.9813 46.8344C55.1562 47.1437 55.1562 48.5969 54.5531 50.3031Z" fill="#124DB7"/>
</g>
<defs>
<clipPath id="clip0_84_61">
<rect width="50" height="50" fill="white" transform="translate(15 15)"/>
</clipPath>
</defs>
</svg>
