<svg width="80" height="80" viewBox="0 0 80 80" fill="none" xmlns="http://www.w3.org/2000/svg">
<circle cx="40" cy="40" r="40" fill="white"/>
<path d="M32.4667 61.3797C33.9799 61.3797 34.4075 60.7876 34.4075 60.031C34.4075 59.2745 34.4075 57.6297 34.3746 55.2942C26.5128 56.9718 24.8352 51.5442 24.8352 51.5442C23.5523 48.3534 21.6773 47.4652 21.6773 47.4652C19.1115 45.7547 21.8746 45.7876 21.8746 45.7876C24.7036 45.985 26.2167 48.6495 26.2167 48.6495C28.7496 52.9258 32.8286 51.6758 34.4404 50.9521C34.572 49.5376 35.197 48.1889 36.2496 47.2021C29.9667 46.5113 23.3549 44.11 23.3549 33.4521C23.322 30.6889 24.3746 27.9916 26.2825 25.985C25.9536 25.2942 24.9996 22.4652 26.5128 18.6166C26.5128 18.6166 28.8812 17.86 34.3089 21.4784C38.947 20.2284 43.8154 20.2284 48.4536 21.4784C53.8154 17.8929 56.2168 18.6166 56.2168 18.6166C57.7299 22.4324 56.776 25.2613 56.5128 25.985C58.4207 27.9916 59.4404 30.6889 59.4075 33.4521C59.4075 44.1429 52.7957 46.4784 46.4799 47.1692C47.4667 47.9916 48.3878 49.7021 48.3878 52.3008C48.3878 56.0508 48.3549 59.0113 48.3549 59.8995C48.3549 60.6231 48.6839 61.2152 50.2957 61.2152L32.4667 61.3797Z" fill="#124DB7"/>
</svg>
