<svg width="80" height="80" viewBox="0 0 80 80" fill="none" xmlns="http://www.w3.org/2000/svg">
<circle cx="40" cy="40" r="40" fill="white"/>
<g clip-path="url(#clip0_75_53)">
<path d="M20.6845 14.9766C17.2473 14.9766 15 17.2336 15 20.2002C15 23.1013 17.1804 25.4227 20.5527 25.4227H20.6179C24.1224 25.4227 26.3033 23.1013 26.3033 20.2002C26.2378 17.2336 24.1224 14.9766 20.6845 14.9766ZM15.594 29.5504H25.6425V59.7816H15.5939L15.594 29.5504ZM50.3067 28.8408C44.8859 28.8408 41.2511 33.9346 41.2511 33.9346V29.5503H31.2023V59.7816H41.2504V42.8993C41.2504 41.9954 41.316 41.0931 41.5815 40.4468C42.3079 38.6421 43.961 36.7724 46.737 36.7724C50.3731 36.7724 51.8273 39.5448 51.8273 43.6088V59.7816H61.875V42.4475C61.875 33.1619 56.9174 28.8408 50.3067 28.8408Z" fill="#124DB7"/>
</g>
<defs>
<clipPath id="clip0_75_53">
<rect width="50" height="50" fill="white" transform="translate(15 15)"/>
</clipPath>
</defs>
</svg>
