<svg width="80" height="80" viewBox="0 0 80 80" fill="none" xmlns="http://www.w3.org/2000/svg">
<circle cx="40" cy="40" r="40" fill="white"/>
<path d="M47.3984 42.0742L43.2108 46.276C41.5127 47.9801 38.5248 48.0168 36.7899 46.276L32.6021 42.0742L17.5615 57.1637C18.1214 57.4226 18.7387 57.5771 19.3949 57.5771H60.6059C61.2621 57.5771 61.8792 57.4228 62.4389 57.1638L47.3984 42.0742Z" fill="#124DB7"/>
<path d="M60.6055 22.4219H19.3945C18.7383 22.4219 18.121 22.5764 17.5613 22.8353L33.6333 38.9605C33.6344 38.9616 33.6356 38.9618 33.6367 38.9629C33.6374 38.9636 33.6378 38.9645 33.638 38.9654L38.8639 44.2086C39.4189 44.7637 40.5812 44.7637 41.1363 44.2086L46.3611 38.9663C46.3611 38.9663 46.3624 38.964 46.3635 38.9629C46.3635 38.9629 46.3658 38.9616 46.3669 38.9605L62.4385 22.8352C61.8788 22.5762 61.2617 22.4219 60.6055 22.4219ZM15.4674 24.884C15.1777 25.4697 15 26.1199 15 26.8164V53.1836C15 53.8801 15.1775 54.5303 15.4673 55.116L30.534 40.0005L15.4674 24.884ZM64.5326 24.8838L49.4661 40.0005L64.5326 55.1162C64.8223 54.5305 65 53.8803 65 53.1836V26.8164C65 26.1197 64.8223 25.4695 64.5326 24.8838Z" fill="#124DB7"/>
</svg>
